# xmcd
#
# Track frame offsets: 
#        150
#        35019
#        70149
#        101154
#        132132
#        160490
#        181796
#        202212
#        230156
#        254705
#        290176
#        304493
#        320815
#
# Disc length: 4651 seconds
#
# Revision: 0
# Processed by: cddbd v1.5.2PL0 Copyright (c) Steve Scherf et al.
# Submitted via: ExactAudioCopy v1.0b3
#
DISCID=d912290d
DTITLE=Various Artist - Hardstyle Bass Vol. 1 - CD 2
DYEAR=1900
DGENRE=
TTITLE0=Digital Punk - Push Em Up, Get Em Up
TTITLE1=Technoboy - Guns 'n' Roses (Technoboy's Supa Bass Mix)
TTITLE2=Lady Sin Vs. MC Hughie Babe - Kill The Bitch
TTITLE3=A-Lusion - Perfect It
TTITLE4=Overload - Overload (Vortex Vs. Zatox)
TTITLE5=Hollow - Morsecode (PCS Rmx)
TTITLE6=Zairon - Superstar (Zatox Mix)
TTITLE7=Duco Vs. The Bazz Pimpz - Make Noise
TTITLE8=Bountyhunter - Doh
TTITLE9=Automatic DJ's - Mad Lay Number Three (Original Third Mix)
TTITLE10=DJ Luke Spellbound - My Style
TTITLE11=DJ Coone - Gonna Cum
TTITLE12=Philippe Rochard Meets Nu-Pulse - Kizza
EXTD=
EXTT0=
EXTT1=
EXTT2=
EXTT3=
EXTT4=
EXTT5=
EXTT6=
EXTT7=
EXTT8=
EXTT9=
EXTT10=
EXTT11=
EXTT12=
PLAYORDER=
